<svg id="Layer_1" data-name="Layer 1" xmlns="http://www.w3.org/2000/svg" viewBox="0 0 119.5 64.7"><defs><style>.cls-1{fill:#ef3e73;}.cls-2{fill:none;stroke:#ef3e73;stroke-miterlimit:10;stroke-width:5px;}</style></defs><title>README</title><path class="cls-1" d="M0,63.93A111,111,0,0,0,.78,48.68V17.57A99.68,99.68,0,0,0,0,2.32h20.1V6.56c0,.61-.1,2.12-.1,2.83C26.33,3.33,32.49.81,40.77.81c7,0,12.53,1.92,16.26,5.65,4,4,5.76,9,5.76,17V48.81A127.83,127.83,0,0,0,63.6,64h-21a114.26,114.26,0,0,0,.81-15.25V28c0-4-.4-5.75-1.62-7.47s-3.63-2.83-6.66-2.83c-5.66,0-10.71,3.54-15.05,10.61v20.4a121.36,121.36,0,0,0,.81,15.25Z" transform="translate(0.03 -0.81)"/><path class="cls-2" d="M69.19,63a73.9,73.9,0,0,0,.57-10.51V14.08a78,78,0,0,0-.57-10.36c3.34.14,5.89.21,10.44.21H95.18c14,0,21.79,6.74,21.79,19.1,0,12.64-8.09,20.16-21.87,20.16H83.89v9.06A91.44,91.44,0,0,0,84.46,63ZM94.43,31.12c5,0,7.88-2.77,7.88-7.67S99.54,16,94.43,16H83.89V31.12Z" transform="translate(0.03 -0.81)"/></svg>