<svg id="Layer_1" data-name="Layer 1" xmlns="http://www.w3.org/2000/svg" viewBox="0 0 402.75 66.25"><defs><style>.cls-1{fill:#ef3e73;}.cls-2{fill:none;stroke:#ef3e73;stroke-miterlimit:10;stroke-width:5px;}</style></defs><title>logo</title><path class="cls-1" d="M137,352.68a112.33,112.33,0,0,0,.81-15.25V306.32a99.78,99.78,0,0,0-.81-15.25h20.1v4.24c0,.61-.1,2.12-.1,2.83,6.36-6.06,12.52-8.58,20.8-8.58,7,0,12.53,1.92,16.26,5.65,4,4,5.76,9,5.76,17v25.35a128.1,128.1,0,0,0,.81,15.15h-21a114.23,114.23,0,0,0,.81-15.25V316.72c0-4-.4-5.75-1.62-7.47s-3.63-2.83-6.66-2.83c-5.66,0-10.71,3.54-15.05,10.61v20.4a122.25,122.25,0,0,0,.81,15.25Z" transform="translate(-137.03 -288.75)"/><path class="cls-1" d="M208.54,321.77c0-20.2,12.93-33,33.33-33s33.33,12.82,33.33,32.82S261.86,355,241.77,355C221.47,355,208.54,342.08,208.54,321.77Zm19.29-.1c0,11.21,5.25,18,14,18s13.83-6.56,13.83-17.77-5.15-18-13.73-18C233.08,303.9,227.83,310.56,227.83,321.67Z" transform="translate(-137.03 -288.75)"/><path class="cls-1" d="M335.7,352.68a93.47,93.47,0,0,0-3.14-11.82l-6.16-20.2c-.5-1.71-.91-3-1.11-3.94-.7,2.33-.7,2.53-1.21,3.94l-6.16,20.2a107.19,107.19,0,0,0-3.13,11.82H297.62a113.89,113.89,0,0,0-3-11.82L283.28,304.2c-1.11-3.53-2.63-8-4.55-13.13h21.72A68.48,68.48,0,0,0,302.37,303l4.34,18.08c.5,2.42.91,4,1,4.85,1.21-3.94,1.21-3.94,1.41-4.85l5.66-18.38c2.73-9.5,2.73-9.5,3.13-11.62h14.75a94.54,94.54,0,0,0,3,11.62l5.85,19.08c.21.71.81,2.93,1.22,4.15.3-1.52.3-1.52.9-4.25l4.25-17.87A82.56,82.56,0,0,0,350,291.07h21.71c-1.51,3.84-3,8.38-4.54,13.13L355.9,340.86a83.64,83.64,0,0,0-3,11.82Z" transform="translate(-137.03 -288.75)"/><path class="cls-2" d="M376.76,351.75a75.45,75.45,0,0,0,.57-10.51V302.83a78.55,78.55,0,0,0-.57-10.36c3.34.14,5.89.21,10.44.21h15.55c14.05,0,21.79,6.74,21.79,19.1,0,12.64-8.09,20.16-21.87,20.16H391.46V341a91,91,0,0,0,.57,10.72ZM402,319.87c5,0,7.88-2.77,7.88-7.67s-2.77-7.45-7.88-7.45H391.46v15.12Z" transform="translate(-137.03 -288.75)"/><path class="cls-2" d="M466.93,351.75a58.07,58.07,0,0,0-1.71-7.67l-1.91-6H443.07l-1.91,6a40.75,40.75,0,0,0-1.78,7.67H422.77a71.5,71.5,0,0,0,3.41-8.66l15.33-42.74a42.72,42.72,0,0,0,2.27-7.67h18.53a57.62,57.62,0,0,0,2.42,7.67l15.4,42.74c1.35,3.76,2.49,6.67,3.41,8.66Zm-13.85-46.93-6.6,21.3h13.35Z" transform="translate(-137.03 -288.75)"/><path class="cls-2" d="M513.08,341.24a86.09,86.09,0,0,0,.57,10.51H498.17a92.65,92.65,0,0,0,.57-10.51V328.11l-16.33-26.84c-1.28-2.2-2.84-4.54-5.68-8.59h18a34,34,0,0,0,3.34,7.45l7.88,14.42,7.88-14.35a31.67,31.67,0,0,0,3.27-7.52h18c-2.06,3-4.76,7-5.68,8.59l-16.26,26.84Z" transform="translate(-137.03 -288.75)"/></svg>